<?xml version="1.0" standalone="no"?>
<!DOCTYPE svg PUBLIC "-//W3C//DTD SVG 20010904//EN"
 "http://www.w3.org/TR/2001/REC-SVG-20010904/DTD/svg10.dtd">
<svg version="1.0" xmlns="http://www.w3.org/2000/svg"
 width="3525.000000pt" height="3525.000000pt" viewBox="0 0 3525.000000 3525.000000"
 preserveAspectRatio="xMidYMid meet">

<g transform="translate(0.000000,3525.000000) scale(0.100000,-0.100000)"
fill="#000000" stroke="none">
<path d="M15281 31631 c-41 -76 -33 -421 12 -545 29 -77 39 -91 61 -83 37 15
199 304 240 430 22 66 21 130 -2 150 -31 29 -133 58 -218 64 -77 5 -83 4 -93
-16z"/>
<path d="M14837 31602 c-24 -26 -44 -144 -52 -312 -8 -149 3 -219 50 -316 31
-64 63 -93 108 -101 30 -4 37 -2 52 21 25 37 91 231 109 318 22 107 26 319 6
343 -26 31 -99 57 -179 62 -67 5 -78 3 -94 -15z"/>
<path d="M17542 30818 c-28 -14 -30 -22 -36 -188 -4 -85 -15 -182 -31 -260
-14 -69 -32 -179 -40 -244 -8 -66 -27 -163 -41 -215 -22 -77 -27 -122 -30
-226 -2 -101 -8 -155 -29 -240 -58 -236 -65 -274 -75 -400 -11 -150 -23 -229
-56 -375 -12 -58 -30 -155 -38 -217 -9 -61 -27 -141 -40 -176 -17 -45 -32
-128 -50 -275 -26 -204 -26 -214 -10 -274 21 -82 14 -146 -25 -228 -23 -48
-31 -79 -31 -120 0 -31 -13 -100 -31 -160 -26 -91 -29 -114 -23 -174 5 -59 3
-75 -17 -117 -21 -46 -22 -53 -10 -112 13 -67 9 -95 -22 -166 -15 -34 -19 -69
-21 -160 -1 -149 11 -177 108 -244 102 -69 128 -74 199 -37 64 34 92 37 133
15 16 -8 36 -15 44 -15 8 0 46 34 86 75 68 71 103 90 119 65 27 -43 50 87 41
227 -5 78 -3 127 10 195 l16 90 -32 33 c-31 32 -32 34 -25 97 7 62 6 65 -19
81 -36 24 -34 62 10 159 29 66 35 87 30 121 -21 148 -19 198 17 362 20 88 43
212 51 275 30 224 32 227 223 246 76 8 206 23 288 35 83 11 218 29 300 40 155
20 467 30 517 16 51 -14 120 -199 121 -327 1 -92 -10 -300 -16 -306 -3 -3 -1
-21 4 -39 8 -27 3 -58 -21 -150 -41 -158 -41 -238 0 -340 38 -97 39 -149 3
-201 -32 -46 -35 -100 -11 -184 11 -40 13 -63 5 -85 -5 -16 -13 -68 -17 -115
-4 -47 -15 -125 -25 -175 -22 -113 -15 -183 26 -278 25 -58 32 -93 38 -175 9
-126 15 -134 105 -140 64 -4 64 -4 110 38 28 26 59 69 77 106 33 70 40 72 88
20 14 -14 31 -26 39 -26 8 0 38 24 66 54 31 32 64 56 83 60 l30 7 7 152 c3 84
11 325 16 537 5 212 14 414 19 450 6 36 11 119 11 185 0 66 7 174 14 240 12
93 14 225 12 581 -2 254 -6 466 -10 473 -4 6 2 96 14 201 11 105 25 270 30
368 5 97 17 215 25 262 9 47 20 159 25 250 5 91 21 242 35 335 28 193 31 290
10 388 -38 180 -125 271 -297 312 -97 23 -125 20 -142 -14 -38 -72 -71 -322
-85 -636 -8 -167 -12 -199 -35 -265 -22 -61 -33 -129 -56 -355 -36 -341 -53
-471 -85 -640 -38 -197 -40 -203 -78 -209 -18 -2 -214 -14 -437 -25 -223 -12
-522 -30 -664 -42 -251 -20 -260 -20 -278 -2 -15 15 -16 24 -8 53 6 19 10 59
10 88 0 30 11 83 25 124 15 44 25 93 25 128 0 31 5 81 10 111 8 42 7 66 -4
102 -16 54 -9 132 40 433 25 152 28 199 32 469 1 165 4 336 4 380 3 150 -57
250 -172 292 -71 27 -149 35 -178 21z m-212 -3235 c0 -10 -4 -24 -9 -32 -7
-11 -11 -9 -20 8 -7 12 -9 26 -6 31 10 17 35 11 35 -7z m2350 -879 c11 -12 11
-18 -2 -31 -20 -19 -58 -9 -58 17 0 30 40 40 60 14z m-30 -148 c0 -8 -5 -18
-11 -22 -14 -8 -33 11 -25 25 10 16 36 13 36 -3z"/>
<path d="M15811 30550 c-63 -19 -112 -23 -576 -51 -174 -10 -271 -15 -710 -34
-113 -5 -167 -3 -218 7 -50 11 -73 12 -89 4 -36 -18 -65 -71 -78 -143 -23
-132 -9 -459 25 -611 8 -34 17 -137 20 -230 6 -191 9 -222 36 -311 14 -48 19
-96 20 -200 0 -134 4 -165 30 -307 12 -67 11 -74 -10 -124 -31 -71 -22 -112
40 -196 65 -88 73 -120 52 -205 -15 -63 -15 -74 6 -215 11 -82 27 -210 35
-285 11 -108 19 -146 40 -187 38 -75 42 -123 17 -219 -27 -106 -26 -152 5
-259 14 -49 34 -141 45 -204 34 -202 69 -291 140 -355 41 -37 120 -65 183 -65
57 0 338 42 559 84 263 50 427 73 733 101 401 38 430 44 478 108 31 41 35 169
7 213 -53 85 -288 118 -450 62 -30 -10 -82 -18 -115 -18 -80 0 -218 -23 -393
-65 -287 -69 -429 -84 -464 -48 -20 19 -20 20 1 102 28 108 23 131 -46 181
-29 22 -58 49 -64 59 -13 26 -13 126 2 226 11 76 10 84 -10 126 -26 55 -60
224 -60 304 0 33 -12 107 -26 165 -30 122 -31 141 -11 179 35 69 163 121 448
180 231 49 317 74 340 99 31 34 78 150 79 193 1 51 -28 82 -95 100 -55 15
-414 5 -552 -16 -137 -21 -248 -29 -280 -21 -47 12 -69 92 -85 311 -5 71 -19
168 -30 215 -12 47 -25 135 -31 195 -9 102 -23 202 -64 475 -13 89 -14 112 -3
145 19 58 45 64 278 65 231 0 861 33 1080 56 161 16 204 30 248 77 l23 25 -17
113 c-9 63 -21 124 -25 137 -6 15 -30 33 -66 50 -53 25 -70 27 -198 29 -114 2
-152 -1 -204 -17z m-1117 -1516 c17 -7 21 -50 7 -73 -15 -23 -31 -2 -31 40 0
42 0 42 24 33z m-140 -210 c3 -26 6 -78 6 -116 0 -59 -2 -69 -17 -66 -37 7
-64 175 -34 211 23 29 38 19 45 -29z m176 -130 c0 -8 -4 -14 -10 -14 -5 0 -10
9 -10 21 0 11 5 17 10 14 6 -3 10 -13 10 -21z m-127 -708 c6 -16 -2 -28 -14
-20 -12 7 -11 34 0 34 5 0 11 -6 14 -14z m287 -132 c12 -31 13 -124 2 -142 -7
-9 -13 -8 -27 8 -19 21 -33 115 -22 145 10 24 36 18 47 -11z m16 -311 c-10
-10 -19 5 -10 18 6 11 8 11 12 0 2 -7 1 -15 -2 -18z m-176 -154 c43 -83 79
-282 49 -263 -7 4 -36 57 -65 119 -53 111 -58 139 -31 173 16 20 25 14 47 -29z
m-140 -68 c0 -6 -4 -13 -10 -16 -5 -3 -10 1 -10 9 0 9 5 16 10 16 6 0 10 -4
10 -9z"/>
<path d="M12945 30221 c-208 -56 -369 -127 -615 -274 -74 -44 -236 -132 -360
-195 l-225 -115 -105 -2 c-59 -2 -126 -8 -150 -15 -48 -13 -126 -58 -155 -90
-16 -18 -16 -22 -1 -60 12 -29 13 -46 6 -59 -31 -58 -281 -230 -640 -440 -326
-191 -334 -195 -451 -201 -84 -4 -101 -8 -122 -28 -114 -107 -6 -238 263 -318
261 -77 495 3 859 294 58 47 137 100 176 118 l69 34 34 -33 c57 -55 86 -113
93 -193 7 -72 13 -86 75 -184 35 -55 35 -56 29 -140 -6 -78 -4 -92 23 -165 17
-44 42 -141 57 -215 40 -201 59 -252 110 -310 69 -78 74 -93 72 -211 l-2 -104
62 -150 c41 -99 67 -179 76 -235 35 -208 189 -524 430 -887 46 -68 74 -121 85
-164 14 -53 24 -68 59 -95 23 -18 68 -42 99 -54 l57 -21 26 24 c14 13 47 36
72 50 25 14 61 43 79 63 30 35 32 41 27 93 -9 87 -52 160 -114 196 -29 17 -52
37 -53 46 0 9 -11 33 -25 53 -14 21 -30 59 -36 84 -13 54 -56 181 -92 267 -18
44 -29 101 -41 210 -26 241 -46 355 -77 440 -16 44 -45 143 -64 219 -23 90
-47 160 -69 200 -38 69 -133 368 -166 526 -12 58 -31 128 -42 155 -76 190
-179 653 -182 823 -1 98 -18 78 189 216 79 53 160 116 186 145 41 45 51 51 86
51 29 0 46 7 63 25 13 14 69 48 124 75 56 27 128 65 161 85 33 19 92 47 130
62 170 64 305 190 305 283 0 136 -157 185 -395 121z"/>
<path d="M22195 29934 c-135 -30 -201 -71 -358 -222 -443 -426 -469 -453 -562
-577 -238 -317 -522 -885 -595 -1188 -16 -67 -43 -159 -60 -205 -16 -46 -37
-127 -45 -180 -17 -115 -35 -179 -65 -228 -39 -67 -50 -137 -51 -324 -1 -96
-4 -186 -8 -199 -4 -15 4 -53 20 -104 27 -78 37 -138 58 -342 21 -203 80 -375
208 -610 99 -179 133 -225 235 -311 233 -195 422 -270 708 -281 238 -9 307 10
635 175 184 92 193 98 265 175 41 44 174 182 295 306 122 124 242 254 269 289
26 34 72 113 102 175 30 61 78 146 108 188 29 42 63 103 75 135 15 37 40 77
72 111 53 56 61 82 29 90 -26 7 -26 11 14 61 25 31 39 64 51 115 9 40 32 105
52 145 35 71 36 79 43 220 5 92 13 162 23 187 32 85 61 140 78 153 32 22 45
94 41 235 l-2 57 -35 0 c-38 0 -57 22 -36 43 9 9 18 8 40 -4 l27 -16 12 146
c21 252 14 350 -31 441 -18 37 -22 62 -22 145 0 95 2 103 32 152 l32 51 -65
144 c-109 240 -172 367 -201 405 -37 49 -244 203 -329 246 -151 75 -253 98
-474 106 l-175 6 -96 48 c-83 42 -105 49 -170 52 -45 3 -101 -1 -144 -11z
m751 -314 c151 -65 302 -226 407 -436 20 -39 47 -85 62 -102 61 -73 102 -207
136 -441 11 -80 32 -197 45 -258 28 -131 29 -163 9 -203 -27 -51 -53 -189 -75
-385 -27 -246 -45 -344 -80 -432 -16 -40 -38 -109 -49 -155 -71 -300 -201
-541 -439 -820 -421 -493 -675 -680 -1000 -735 -113 -19 -164 -11 -273 44
-163 81 -335 300 -425 540 -43 114 -84 307 -104 492 -11 97 -22 185 -24 195
-3 10 6 33 20 51 35 47 40 107 15 180 -29 82 -27 114 11 166 38 52 60 125 88
281 31 178 102 382 187 538 72 131 253 427 311 508 73 103 400 482 498 578
156 152 541 413 611 414 12 0 43 -9 69 -20z m-1776 -3395 c15 -18 6 -45 -14
-45 -16 0 -31 34 -21 50 9 14 21 12 35 -5z m112 -182 c20 -17 25 -53 7 -53
-35 0 -63 42 -42 63 9 10 15 9 35 -10z"/>
<path d="M8914 28946 c-48 -21 -58 -64 -51 -215 5 -113 62 -533 87 -648 6 -25
24 -79 40 -122 22 -58 32 -105 40 -200 6 -68 30 -244 55 -390 69 -418 90 -612
69 -665 -11 -28 -58 -17 -165 37 -105 54 -327 190 -377 232 -15 12 -64 41
-108 63 -45 23 -111 61 -146 86 -66 46 -182 106 -206 106 -7 0 -100 62 -206
138 -219 158 -350 241 -451 288 -128 59 -249 79 -326 52 -107 -36 -279 -191
-279 -250 0 -13 44 -48 153 -118 321 -207 384 -251 457 -313 42 -35 100 -75
130 -89 30 -14 113 -71 184 -127 124 -98 208 -151 240 -151 8 0 28 -11 44 -25
17 -14 47 -32 68 -41 21 -9 73 -48 114 -88 79 -73 86 -79 255 -188 55 -36 120
-82 145 -103 56 -47 129 -82 304 -145 163 -58 194 -75 220 -119 55 -95 87
-331 67 -493 -7 -57 -17 -182 -21 -278 -6 -131 -15 -205 -35 -295 -15 -66 -34
-166 -44 -222 -16 -99 -17 -103 -71 -168 -89 -108 -178 -236 -201 -290 -16
-39 -29 -54 -59 -69 -48 -23 -157 -124 -165 -152 -4 -15 5 -34 30 -64 22 -26
35 -53 35 -70 0 -54 13 -90 47 -130 19 -22 43 -40 54 -40 22 0 39 35 39 78 0
43 26 72 63 72 23 0 55 -17 114 -59 122 -87 189 -106 274 -76 96 34 138 88
206 260 76 191 75 191 128 204 41 10 49 17 65 54 30 69 34 126 12 170 -11 20
-16 40 -11 42 5 3 11 -6 15 -20 13 -54 25 -28 60 137 8 40 26 151 39 245 13
95 29 182 35 192 5 11 20 23 32 27 39 12 39 27 2 65 l-36 37 12 55 c12 51 11
58 -9 90 -17 28 -21 50 -21 113 l0 79 20 -25 c11 -14 34 -51 52 -83 18 -33 43
-71 55 -85 l23 -27 -14 40 c-50 145 -102 274 -123 306 -38 57 -21 113 37 121
21 2 25 8 24 36 -1 18 -20 90 -43 161 -23 71 -41 132 -41 135 0 4 95 -36 119
-51 2 -1 -2 -9 -9 -18 -23 -28 12 -125 45 -125 47 0 55 62 30 235 -8 55 -15
129 -15 164 0 56 -3 67 -31 98 -21 24 -29 42 -25 57 26 107 29 154 12 202 -10
27 -21 91 -26 142 -10 98 -35 170 -74 212 -54 58 -60 78 -67 209 -5 98 -11
137 -28 175 -12 27 -40 133 -61 235 -57 262 -74 319 -129 429 -63 126 -84 196
-126 421 -44 233 -58 289 -97 374 -36 79 -89 131 -149 147 -117 32 -252 39
-305 16z m1066 -2916 c0 -5 -5 -10 -11 -10 -5 0 -7 5 -4 10 3 6 8 10 11 10 2
0 4 -4 4 -10z"/>
<path d="M25848 28569 c-43 -30 -73 -63 -119 -132 -76 -114 -125 -172 -259
-312 -127 -132 -167 -180 -250 -305 -38 -57 -100 -131 -156 -185 -116 -112
-166 -184 -200 -288 -37 -112 -49 -134 -105 -192 -27 -28 -61 -78 -78 -115
-16 -36 -69 -127 -118 -202 -48 -75 -110 -176 -138 -224 -27 -49 -92 -144
-143 -213 -51 -69 -105 -152 -120 -185 -94 -202 -338 -662 -449 -845 -41 -67
-89 -155 -107 -195 -19 -39 -47 -84 -64 -100 -17 -16 -41 -54 -53 -85 -12 -31
-35 -70 -52 -88 -29 -31 -29 -32 -35 -181 -5 -143 -4 -151 20 -203 33 -73 83
-129 114 -129 32 0 84 27 164 85 135 99 182 147 263 270 94 143 123 198 132
251 13 79 15 84 53 103 52 27 117 120 108 155 -3 14 -9 37 -12 49 -5 19 2 30
35 56 29 24 41 40 41 59 1 36 26 65 77 91 22 11 50 33 62 48 37 49 43 54 59
51 22 -4 30 -41 42 -217 30 -443 130 -780 313 -1059 119 -182 256 -300 398
-343 97 -29 151 -11 200 67 28 46 24 55 -85 178 -75 84 -96 117 -156 239 -145
300 -158 373 -141 808 6 176 16 356 21 402 15 129 45 155 219 191 77 16 119
30 143 48 40 31 49 34 163 53 60 11 97 23 111 36 25 23 190 75 273 85 31 4
107 25 171 47 106 36 124 39 235 41 136 3 100 -10 395 143 96 51 207 103 245
118 39 14 95 39 125 55 30 16 106 47 168 68 133 47 153 59 189 113 20 31 28
57 31 104 4 58 1 69 -37 141 -50 95 -67 116 -112 140 -75 39 -164 15 -310 -83
-93 -63 -145 -89 -192 -98 -20 -4 -49 -18 -64 -31 -19 -16 -40 -24 -65 -24
-24 0 -44 -7 -55 -19 -10 -10 -38 -24 -63 -31 -24 -7 -76 -27 -115 -45 -44
-21 -105 -40 -165 -50 -56 -9 -124 -29 -170 -49 -41 -19 -95 -39 -120 -46 -25
-6 -63 -16 -85 -22 -22 -6 -71 -26 -109 -45 -52 -26 -88 -36 -152 -43 -66 -7
-117 -22 -246 -73 -202 -79 -245 -91 -308 -85 -40 4 -62 14 -108 50 -31 25
-66 61 -77 81 l-19 36 33 47 c33 45 33 48 16 60 -18 13 -17 16 16 62 19 27 66
76 104 109 43 36 94 94 128 144 65 96 93 127 202 224 50 45 97 99 130 150 32
49 80 105 124 144 40 36 90 90 111 122 44 64 77 99 173 182 77 66 130 141 187
259 47 96 49 124 15 215 -40 105 -91 188 -162 264 -64 67 -152 140 -169 138
-5 0 -35 -18 -66 -40z m-518 -1119 c0 -13 -7 -20 -19 -20 -22 0 -35 15 -26 30
12 19 45 11 45 -10z m-512 -643 c2 -12 -3 -17 -17 -17 -12 0 -21 6 -21 13 0
31 32 34 38 4z m186 -193 c23 -9 20 -22 -11 -37 -33 -17 -53 -12 -53 12 0 30
25 40 64 25z m-211 -20 c10 -10 -34 -84 -56 -96 -38 -20 -33 22 10 72 25 30
35 35 46 24z m-133 -58 c0 -21 -21 -31 -30 -15 -5 7 -6 17 -4 21 9 14 34 9 34
-6z m-280 -449 c0 -38 -51 -152 -126 -284 -91 -158 -117 -193 -145 -193 -15 0
-17 10 -15 83 1 45 8 92 14 104 7 12 39 45 73 75 69 60 84 83 93 150 4 26 14
55 22 63 19 19 84 20 84 2z m178 -174 c3 -41 -19 -103 -38 -103 -4 0 -18 12
-29 26 -19 24 -19 28 -6 62 33 77 68 84 73 15z m-38 -151 c0 -25 -10 -54 -30
-85 -31 -50 -52 -58 -70 -29 -9 15 -18 9 -76 -53 -48 -51 -64 -63 -59 -45 11
38 53 113 87 154 26 32 120 96 141 96 4 0 7 -17 7 -38z m-502 -268 c26 -18 26
-51 1 -67 -12 -7 -24 -4 -47 13 -36 27 -40 44 -14 59 24 14 34 13 60 -5z"/>
<path d="M15900 22055 c-372 -91 -1149 -683 -1543 -1178 -381 -476 -620 -1100
-714 -1857 -25 -204 -25 -686 0 -890 50 -405 150 -794 285 -1113 34 -78 46
-120 39 -123 -7 -2 -165 -55 -352 -118 -820 -275 -1434 -517 -1930 -760 -356
-174 -565 -301 -745 -452 -257 -216 -331 -406 -210 -538 56 -61 146 -99 360
-152 101 -25 217 -58 259 -74 93 -36 231 -125 331 -213 302 -266 351 -301 487
-348 171 -59 417 -38 713 61 52 18 215 76 361 131 442 163 626 219 1089 334
143 35 335 90 426 121 97 34 169 53 174 48 4 -5 53 -121 108 -259 286 -717
490 -1110 759 -1467 l81 -108 -81 -72 c-318 -280 -748 -575 -1559 -1067 l-87
-53 -73 36 c-334 164 -913 109 -1523 -146 -156 -65 -463 -218 -690 -345 -218
-122 -597 -341 -609 -353 -5 -5 18 -45 51 -92 64 -88 131 -195 151 -241 30
-68 8 -121 -119 -297 -158 -219 -231 -332 -279 -433 -110 -231 -99 -391 34
-522 102 -99 245 -149 426 -149 168 0 295 33 605 158 88 36 161 63 163 61 3
-2 -6 -42 -18 -90 -13 -47 -20 -88 -17 -92 4 -3 59 7 124 22 182 43 278 100
635 377 101 79 289 219 418 312 129 92 265 192 301 222 95 78 236 227 301 319
123 176 240 422 287 605 45 170 37 361 -19 470 l-20 39 88 52 c721 432 1338
859 1584 1097 l47 45 93 -88 c284 -271 575 -418 958 -487 126 -22 487 -17 645
10 557 96 1192 364 1622 686 207 155 351 308 568 606 168 231 220 294 323 391
150 142 273 218 460 283 136 47 245 93 317 134 236 133 562 478 689 729 21 43
31 53 58 58 18 3 166 23 328 46 795 108 1133 183 1446 320 l52 22 61 -65 c132
-142 320 -198 662 -198 92 0 213 5 270 10 540 55 1213 227 1709 437 122 52
640 313 640 323 0 4 -46 37 -102 75 -111 74 -192 144 -214 187 -47 91 22 223
295 566 58 74 105 137 104 140 -1 3 -98 18 -215 33 -500 63 -682 119 -746 228
-48 82 -43 187 27 509 21 95 25 132 16 128 -17 -6 -734 -450 -1000 -619 -689
-438 -1020 -681 -1250 -918 -209 -216 -299 -387 -309 -586 -3 -65 -4 -66 -41
-85 -119 -62 -353 -137 -565 -182 -220 -47 -1087 -181 -1099 -170 -7 6 49 127
92 199 24 39 106 157 185 262 171 232 313 443 499 743 269 434 356 581 347
589 -5 4 -211 72 -459 151 -594 189 -1072 350 -1385 467 -140 52 -265 100
-277 107 -21 10 -16 15 77 85 117 87 311 283 392 397 152 213 210 399 238 764
23 303 57 490 115 635 15 38 60 132 99 209 96 187 111 253 81 354 -19 62 -62
115 -119 145 -35 19 -57 22 -141 22 -116 -1 -165 -15 -340 -100 -372 -181
-1305 -820 -1922 -1318 l-181 -145 -34 36 c-46 49 -107 131 -207 279 l-82 122
24 38 c13 21 34 65 47 98 22 54 24 74 22 204 -2 169 -1 171 107 336 127 192
169 298 158 403 -24 233 -316 300 -683 157 -105 -41 -304 -143 -448 -229 -111
-66 -131 -75 -146 -64 -9 7 -100 82 -201 167 -101 85 -293 239 -425 344 l-242
189 41 71 c61 107 133 266 146 319 15 64 14 102 -4 146 -33 79 -91 115 -180
115 -74 1 -148 -23 -360 -115 -199 -86 -360 -143 -466 -163 -98 -18 -99 -18
-99 -2 0 6 25 73 56 147 68 164 80 249 45 317 -24 48 -60 76 -116 92 -50 14
-86 13 -155 -4z m-91 -425 c-84 -262 14 -422 261 -423 151 0 335 50 611 168
82 34 149 61 149 59 0 -6 -192 -338 -201 -348 -19 -20 -6 -35 94 -112 321
-246 807 -635 880 -704 18 -17 13 -21 -125 -116 -78 -54 -273 -190 -433 -303
-532 -375 -677 -466 -895 -559 -220 -94 -292 -143 -319 -215 -41 -109 35 -250
172 -317 105 -51 185 -63 402 -57 202 6 340 24 695 93 734 141 1150 271 1404
437 l70 45 91 -135 c51 -74 120 -168 153 -208 l61 -73 -208 -208 c-279 -281
-404 -451 -478 -646 -106 -280 -79 -516 76 -668 93 -91 240 -154 420 -180 117
-18 324 -8 426 19 103 28 251 101 390 192 295 193 470 286 750 399 151 61 184
71 205 62 14 -5 120 -48 235 -95 356 -144 899 -334 1648 -573 81 -26 147 -51
147 -56 0 -14 -230 -384 -375 -603 -73 -110 -186 -272 -252 -360 -204 -274
-242 -336 -330 -535 -131 -297 -216 -430 -398 -618 -112 -117 -233 -212 -330
-261 -36 -17 -123 -52 -193 -77 -279 -99 -465 -217 -663 -420 -58 -60 -137
-152 -175 -204 -261 -353 -318 -425 -419 -525 -60 -61 -159 -147 -218 -192
-393 -293 -1012 -552 -1509 -629 -153 -24 -437 -25 -565 -1 -212 39 -437 137
-609 264 -105 79 -282 253 -378 373 -87 109 -235 332 -322 485 -152 269 -276
548 -550 1236 -306 770 -396 964 -671 1442 -310 541 -398 738 -498 1122 -91
349 -120 582 -120 970 0 322 11 448 61 710 113 585 314 1048 621 1430 264 328
790 769 1148 962 44 23 83 43 86 43 4 0 -6 -41 -22 -90z m3093 -1000 c20 -6
47 -23 59 -38 43 -54 8 -151 -129 -360 -115 -175 -124 -202 -120 -376 2 -140
2 -141 -30 -210 -40 -86 -146 -197 -258 -272 -229 -153 -590 -267 -1274 -404
-453 -90 -561 -105 -790 -105 -181 0 -199 2 -253 23 -68 28 -127 82 -127 117
0 32 36 55 220 134 257 112 363 178 995 621 848 595 1206 804 1480 865 73 16
177 18 227 5z m2713 -220 c30 -33 13 -87 -84 -283 -141 -285 -167 -391 -211
-867 -10 -118 -26 -247 -34 -285 -46 -216 -153 -397 -350 -590 -190 -187 -353
-283 -726 -430 -298 -118 -500 -225 -805 -424 -225 -148 -351 -192 -550 -192
-256 0 -439 74 -508 205 -32 62 -35 198 -8 307 68 267 332 587 846 1022 606
514 1679 1266 2103 1473 172 84 288 107 327 64z m4190 -2857 c0 -137 15 -191
73 -268 99 -131 268 -201 612 -256 74 -12 137 -23 138 -24 2 -2 -28 -48 -67
-102 -133 -185 -186 -311 -179 -427 6 -88 31 -140 105 -217 l55 -58 -121 -60
c-349 -175 -760 -317 -1217 -420 -678 -152 -1162 -166 -1382 -40 -194 110
-166 367 67 636 216 249 607 532 1561 1130 195 122 355 223 355 223 0 0 0 -53
0 -117z m-11565 -1140 c290 -509 428 -795 544 -1132 31 -90 55 -165 54 -166
-29 -20 -348 -116 -603 -180 -478 -121 -610 -162 -1140 -358 -500 -186 -690
-219 -877 -156 -86 29 -170 87 -325 227 -285 257 -390 315 -743 404 -107 27
-215 60 -240 72 -39 20 -45 27 -44 54 4 90 220 288 501 458 308 186 882 445
1491 674 402 150 1158 410 1192 410 9 -1 83 -120 190 -307z m-390 -4588 c158
-37 253 -103 290 -201 94 -252 -153 -819 -479 -1101 -46 -39 -192 -149 -325
-244 -132 -95 -321 -235 -418 -311 -177 -138 -384 -288 -398 -288 -4 0 4 45
17 100 14 56 23 103 20 106 -4 5 -227 -79 -612 -230 -303 -119 -482 -135 -642
-60 -63 30 -120 91 -128 137 -19 102 65 280 260 547 219 299 253 391 203 535
-14 39 -45 104 -71 145 -25 41 -43 78 -39 82 14 13 479 276 647 365 499 263
883 396 1260 437 91 9 341 -2 415 -19z"/>
<path d="M16658 20573 c-91 -57 -90 -218 2 -280 147 -101 279 154 141 270 -38
32 -100 36 -143 10z"/>
<path d="M16121 20313 c-66 -35 -96 -106 -78 -191 10 -51 61 -106 105 -115
125 -25 214 132 142 251 -38 63 -110 86 -169 55z"/>
</g>
</svg>
